<?xml version="1.0" encoding="UTF-8" standalone="no"?>
<!DOCTYPE svg PUBLIC "-//W3C//DTD SVG 1.1//EN"
 "http://www.w3.org/Graphics/SVG/1.1/DTD/svg11.dtd">
<!-- Generated by graphviz version 2.40.1 (20161225.0304)
 -->
<!-- Title: GoERD Pages: 1 -->
<svg width="327pt" height="662pt"
 viewBox="0.00 0.00 326.61 662.00" xmlns="http://www.w3.org/2000/svg" xmlns:xlink="http://www.w3.org/1999/xlink">
<g id="graph0" class="graph" transform="scale(1 1) rotate(0) translate(4 658)">
<title>GoERD</title>
<polygon fill="#ffffff" stroke="transparent" points="-4,4 -4,-658 322.6069,-658 322.6069,4 -4,4"/>
<!-- node&#45;RoleMenu -->
<g id="node1" class="node">
<title>node&#45;RoleMenu</title>
<polygon fill="none" stroke="#000000" points="10.5547,-411.5 10.5547,-587.5 148.9248,-587.5 148.9248,-411.5 10.5547,-411.5"/>
<text text-anchor="middle" x="79.7397" y="-572.3" font-family="Times,serif" font-size="14.00" fill="#000000">RoleMenu</text>
<polyline fill="none" stroke="#000000" points="10.5547,-565.5 148.9248,-565.5 "/>
<text text-anchor="middle" x="79.7397" y="-550.3" font-family="Times,serif" font-size="14.00" fill="#000000">ID int</text>
<polyline fill="none" stroke="#000000" points="10.5547,-543.5 148.9248,-543.5 "/>
<text text-anchor="middle" x="79.7397" y="-528.3" font-family="Times,serif" font-size="14.00" fill="#000000">CreatedAt time.Time</text>
<polyline fill="none" stroke="#000000" points="10.5547,-521.5 148.9248,-521.5 "/>
<text text-anchor="middle" x="79.7397" y="-506.3" font-family="Times,serif" font-size="14.00" fill="#000000">UpdatedAt time.Time</text>
<polyline fill="none" stroke="#000000" points="10.5547,-499.5 148.9248,-499.5 "/>
<text text-anchor="middle" x="79.7397" y="-484.3" font-family="Times,serif" font-size="14.00" fill="#000000">Role Role</text>
<polyline fill="none" stroke="#000000" points="10.5547,-477.5 148.9248,-477.5 "/>
<text text-anchor="middle" x="79.7397" y="-462.3" font-family="Times,serif" font-size="14.00" fill="#000000">RoleID int</text>
<polyline fill="none" stroke="#000000" points="10.5547,-455.5 148.9248,-455.5 "/>
<text text-anchor="middle" x="79.7397" y="-440.3" font-family="Times,serif" font-size="14.00" fill="#000000">Menu Menu</text>
<polyline fill="none" stroke="#000000" points="10.5547,-433.5 148.9248,-433.5 "/>
<text text-anchor="middle" x="79.7397" y="-418.3" font-family="Times,serif" font-size="14.00" fill="#000000">MenuID int</text>
</g>
<!-- node&#45;Role -->
<g id="node3" class="node">
<title>node&#45;Role</title>
<polygon fill="none" stroke="#000000" points="0,-55.5 0,-253.5 159.4795,-253.5 159.4795,-55.5 0,-55.5"/>
<text text-anchor="middle" x="79.7397" y="-238.3" font-family="Times,serif" font-size="14.00" fill="#000000">Role</text>
<polyline fill="none" stroke="#000000" points="0,-231.5 159.4795,-231.5 "/>
<text text-anchor="middle" x="79.7397" y="-216.3" font-family="Times,serif" font-size="14.00" fill="#000000">ID int</text>
<polyline fill="none" stroke="#000000" points="0,-209.5 159.4795,-209.5 "/>
<text text-anchor="middle" x="79.7397" y="-194.3" font-family="Times,serif" font-size="14.00" fill="#000000">CreatedAt time.Time</text>
<polyline fill="none" stroke="#000000" points="0,-187.5 159.4795,-187.5 "/>
<text text-anchor="middle" x="79.7397" y="-172.3" font-family="Times,serif" font-size="14.00" fill="#000000">UpdatedAt time.Time</text>
<polyline fill="none" stroke="#000000" points="0,-165.5 159.4795,-165.5 "/>
<text text-anchor="middle" x="79.7397" y="-150.3" font-family="Times,serif" font-size="14.00" fill="#000000">Name string</text>
<polyline fill="none" stroke="#000000" points="0,-143.5 159.4795,-143.5 "/>
<text text-anchor="middle" x="79.7397" y="-128.3" font-family="Times,serif" font-size="14.00" fill="#000000">Code string</text>
<polyline fill="none" stroke="#000000" points="0,-121.5 159.4795,-121.5 "/>
<text text-anchor="middle" x="79.7397" y="-106.3" font-family="Times,serif" font-size="14.00" fill="#000000">InheritIds []int</text>
<polyline fill="none" stroke="#000000" points="0,-99.5 159.4795,-99.5 "/>
<text text-anchor="middle" x="79.7397" y="-84.3" font-family="Times,serif" font-size="14.00" fill="#000000">Inherits []*Role</text>
<polyline fill="none" stroke="#000000" points="0,-77.5 159.4795,-77.5 "/>
<text text-anchor="middle" x="79.7397" y="-62.3" font-family="Times,serif" font-size="14.00" fill="#000000">RoleMenus []*RoleMenu</text>
</g>
<!-- node&#45;RoleMenu&#45;&gt;node&#45;Role -->
<g id="edge1" class="edge">
<title>node&#45;RoleMenu:f3&#45;&gt;node&#45;Role</title>
<path fill="none" stroke="#000000" d="M148.7397,-488.5C172.1621,-488.5 140.2698,-360.9004 112.4936,-263.4371"/>
<polygon fill="#000000" stroke="#000000" points="115.8534,-262.4561 109.7346,-253.8067 109.1241,-264.3839 115.8534,-262.4561"/>
</g>
<!-- node&#45;Menu -->
<g id="node4" class="node">
<title>node&#45;Menu</title>
<polygon fill="none" stroke="#000000" points="177.5547,-.5 177.5547,-308.5 315.9248,-308.5 315.9248,-.5 177.5547,-.5"/>
<text text-anchor="middle" x="246.7397" y="-293.3" font-family="Times,serif" font-size="14.00" fill="#000000">Menu</text>
<polyline fill="none" stroke="#000000" points="177.5547,-286.5 315.9248,-286.5 "/>
<text text-anchor="middle" x="246.7397" y="-271.3" font-family="Times,serif" font-size="14.00" fill="#000000">ID int</text>
<polyline fill="none" stroke="#000000" points="177.5547,-264.5 315.9248,-264.5 "/>
<text text-anchor="middle" x="246.7397" y="-249.3" font-family="Times,serif" font-size="14.00" fill="#000000">CreatedAt time.Time</text>
<polyline fill="none" stroke="#000000" points="177.5547,-242.5 315.9248,-242.5 "/>
<text text-anchor="middle" x="246.7397" y="-227.3" font-family="Times,serif" font-size="14.00" fill="#000000">UpdatedAt time.Time</text>
<polyline fill="none" stroke="#000000" points="177.5547,-220.5 315.9248,-220.5 "/>
<text text-anchor="middle" x="246.7397" y="-205.3" font-family="Times,serif" font-size="14.00" fill="#000000">Parent *Menu</text>
<polyline fill="none" stroke="#000000" points="177.5547,-198.5 315.9248,-198.5 "/>
<text text-anchor="middle" x="246.7397" y="-183.3" font-family="Times,serif" font-size="14.00" fill="#000000">ParentID int</text>
<polyline fill="none" stroke="#000000" points="177.5547,-176.5 315.9248,-176.5 "/>
<text text-anchor="middle" x="246.7397" y="-161.3" font-family="Times,serif" font-size="14.00" fill="#000000">Name string</text>
<polyline fill="none" stroke="#000000" points="177.5547,-154.5 315.9248,-154.5 "/>
<text text-anchor="middle" x="246.7397" y="-139.3" font-family="Times,serif" font-size="14.00" fill="#000000">Route string</text>
<polyline fill="none" stroke="#000000" points="177.5547,-132.5 315.9248,-132.5 "/>
<text text-anchor="middle" x="246.7397" y="-117.3" font-family="Times,serif" font-size="14.00" fill="#000000">Component string</text>
<polyline fill="none" stroke="#000000" points="177.5547,-110.5 315.9248,-110.5 "/>
<text text-anchor="middle" x="246.7397" y="-95.3" font-family="Times,serif" font-size="14.00" fill="#000000">Icon string</text>
<polyline fill="none" stroke="#000000" points="177.5547,-88.5 315.9248,-88.5 "/>
<text text-anchor="middle" x="246.7397" y="-73.3" font-family="Times,serif" font-size="14.00" fill="#000000">Sequence int</text>
<polyline fill="none" stroke="#000000" points="177.5547,-66.5 315.9248,-66.5 "/>
<text text-anchor="middle" x="246.7397" y="-51.3" font-family="Times,serif" font-size="14.00" fill="#000000">Tree string</text>
<polyline fill="none" stroke="#000000" points="177.5547,-44.5 315.9248,-44.5 "/>
<text text-anchor="middle" x="246.7397" y="-29.3" font-family="Times,serif" font-size="14.00" fill="#000000">Children []*Menu</text>
<polyline fill="none" stroke="#000000" points="177.5547,-22.5 315.9248,-22.5 "/>
<text text-anchor="middle" x="246.7397" y="-7.3" font-family="Times,serif" font-size="14.00" fill="#000000">UniqueTag string</text>
</g>
<!-- node&#45;RoleMenu&#45;&gt;node&#45;Menu -->
<g id="edge2" class="edge">
<title>node&#45;RoleMenu:f5&#45;&gt;node&#45;Menu</title>
<path fill="none" stroke="#000000" d="M148.7397,-444.5C159.8404,-444.5 154.847,-355.7172 157.7397,-345 162.0338,-329.0911 167.5807,-312.8695 173.8052,-296.9401"/>
<polygon fill="#000000" stroke="#000000" points="177.0772,-298.1841 177.544,-287.5995 170.5785,-295.5828 177.0772,-298.1841"/>
</g>
<!-- node&#45;User -->
<g id="node2" class="node">
<title>node&#45;User</title>
<polygon fill="none" stroke="#000000" points="166.8726,-345.5 166.8726,-653.5 318.6069,-653.5 318.6069,-345.5 166.8726,-345.5"/>
<text text-anchor="middle" x="242.7397" y="-638.3" font-family="Times,serif" font-size="14.00" fill="#000000">User</text>
<polyline fill="none" stroke="#000000" points="166.8726,-631.5 318.6069,-631.5 "/>
<text text-anchor="middle" x="242.7397" y="-616.3" font-family="Times,serif" font-size="14.00" fill="#000000">ID int</text>
<polyline fill="none" stroke="#000000" points="166.8726,-609.5 318.6069,-609.5 "/>
<text text-anchor="middle" x="242.7397" y="-594.3" font-family="Times,serif" font-size="14.00" fill="#000000">CreatedAt time.Time</text>
<polyline fill="none" stroke="#000000" points="166.8726,-587.5 318.6069,-587.5 "/>
<text text-anchor="middle" x="242.7397" y="-572.3" font-family="Times,serif" font-size="14.00" fill="#000000">UpdatedAt time.Time</text>
<polyline fill="none" stroke="#000000" points="166.8726,-565.5 318.6069,-565.5 "/>
<text text-anchor="middle" x="242.7397" y="-550.3" font-family="Times,serif" font-size="14.00" fill="#000000">Username string</text>
<polyline fill="none" stroke="#000000" points="166.8726,-543.5 318.6069,-543.5 "/>
<text text-anchor="middle" x="242.7397" y="-528.3" font-family="Times,serif" font-size="14.00" fill="#000000">Alias string</text>
<polyline fill="none" stroke="#000000" points="166.8726,-521.5 318.6069,-521.5 "/>
<text text-anchor="middle" x="242.7397" y="-506.3" font-family="Times,serif" font-size="14.00" fill="#000000">HeadImage string</text>
<polyline fill="none" stroke="#000000" points="166.8726,-499.5 318.6069,-499.5 "/>
<text text-anchor="middle" x="242.7397" y="-484.3" font-family="Times,serif" font-size="14.00" fill="#000000">Email string</text>
<polyline fill="none" stroke="#000000" points="166.8726,-477.5 318.6069,-477.5 "/>
<text text-anchor="middle" x="242.7397" y="-462.3" font-family="Times,serif" font-size="14.00" fill="#000000">Mobile string</text>
<polyline fill="none" stroke="#000000" points="166.8726,-455.5 318.6069,-455.5 "/>
<text text-anchor="middle" x="242.7397" y="-440.3" font-family="Times,serif" font-size="14.00" fill="#000000">Password string</text>
<polyline fill="none" stroke="#000000" points="166.8726,-433.5 318.6069,-433.5 "/>
<text text-anchor="middle" x="242.7397" y="-418.3" font-family="Times,serif" font-size="14.00" fill="#000000">ConfirmPassword string</text>
<polyline fill="none" stroke="#000000" points="166.8726,-411.5 318.6069,-411.5 "/>
<text text-anchor="middle" x="242.7397" y="-396.3" font-family="Times,serif" font-size="14.00" fill="#000000">Pwd string</text>
<polyline fill="none" stroke="#000000" points="166.8726,-389.5 318.6069,-389.5 "/>
<text text-anchor="middle" x="242.7397" y="-374.3" font-family="Times,serif" font-size="14.00" fill="#000000">IsAdmin bool</text>
<polyline fill="none" stroke="#000000" points="166.8726,-367.5 318.6069,-367.5 "/>
<text text-anchor="middle" x="242.7397" y="-352.3" font-family="Times,serif" font-size="14.00" fill="#000000">IsActive bool</text>
</g>
<!-- node&#45;Role&#45;&gt;node&#45;RoleMenu -->
<g id="edge4" class="edge">
<title>node&#45;Role:f7&#45;&gt;node&#45;RoleMenu</title>
<path fill="none" stroke="#000000" d="M159.7397,-66.5C170.1564,-66.5 161.3737,-243.7123 159.7397,-254 151.8133,-303.9077 135.3552,-357.4657 119.4163,-401.7818"/>
<polygon fill="#000000" stroke="#000000" points="116.0531,-400.7885 115.9196,-411.3825 122.6305,-403.1841 116.0531,-400.7885"/>
</g>
<!-- node&#45;Role&#45;&gt;node&#45;Role -->
<g id="edge3" class="edge">
<title>node&#45;Role:f6&#45;&gt;node&#45;Role</title>
<path fill="none" stroke="#000000" d="M80.7532,-99.7978C88.726,-197.92 88.3882,-426 79.7397,-426 73.7133,-426 71.7222,-344.8453 73.7664,-264.048"/>
<polygon fill="#000000" stroke="#000000" points="77.2749,-263.7817 74.0508,-253.6893 70.2776,-263.5895 77.2749,-263.7817"/>
</g>
<!-- node&#45;Menu&#45;&gt;node&#45;Menu -->
<g id="edge5" class="edge">
<title>node&#45;Menu:f3&#45;&gt;node&#45;Menu</title>
<path fill="none" stroke="#000000" d="M247.6065,-220.5109C255.7298,-328.9561 255.4409,-481 246.7397,-481 241.3882,-481 239.2187,-404.0388 240.2315,-318.7604"/>
<polygon fill="#000000" stroke="#000000" points="243.7333,-318.6418 240.3667,-308.5961 236.7339,-318.5486 243.7333,-318.6418"/>
</g>
<!-- node&#45;Menu&#45;&gt;node&#45;Menu -->
<g id="edge6" class="edge">
<title>node&#45;Menu:f11&#45;&gt;node&#45;Menu</title>
<path fill="none" stroke="#000000" d="M247.5818,-44.719C255.7304,-163.8097 255.4497,-481 246.7397,-481 241.3882,-481 239.2187,-404.0388 240.2315,-318.7604"/>
<polygon fill="#000000" stroke="#000000" points="243.7333,-318.6418 240.3667,-308.5961 236.7339,-318.5486 243.7333,-318.6418"/>
</g>
</g>
</svg>
