<?xml version="1.0" encoding="UTF-8" standalone="no"?>
<!DOCTYPE svg PUBLIC "-//W3C//DTD SVG 1.1//EN"
 "http://www.w3.org/Graphics/SVG/1.1/DTD/svg11.dtd">
<!-- Generated by graphviz version 2.40.1 (20161225.0304)
 -->
<!-- Title: GoERD Pages: 1 -->
<svg width="415pt" height="1411pt"
 viewBox="0.00 0.00 415.44 1411.00" xmlns="http://www.w3.org/2000/svg" xmlns:xlink="http://www.w3.org/1999/xlink">
<g id="graph0" class="graph" transform="scale(1 1) rotate(0) translate(4 1407)">
<title>GoERD</title>
<polygon fill="#ffffff" stroke="transparent" points="-4,4 -4,-1407 411.4401,-1407 411.4401,4 -4,4"/>
<!-- node&#45;SystemApi -->
<g id="node1" class="node">
<title>node&#45;SystemApi</title>
<polygon fill="none" stroke="#000000" points="6.2925,-635.5 6.2925,-723.5 144.6626,-723.5 144.6626,-635.5 6.2925,-635.5"/>
<text text-anchor="middle" x="75.4775" y="-708.3" font-family="Times,serif" font-size="14.00" fill="#000000">SystemApi</text>
<polyline fill="none" stroke="#000000" points="6.2925,-701.5 144.6626,-701.5 "/>
<text text-anchor="middle" x="75.4775" y="-686.3" font-family="Times,serif" font-size="14.00" fill="#000000">ID int</text>
<polyline fill="none" stroke="#000000" points="6.2925,-679.5 144.6626,-679.5 "/>
<text text-anchor="middle" x="75.4775" y="-664.3" font-family="Times,serif" font-size="14.00" fill="#000000">CreatedAt time.Time</text>
<polyline fill="none" stroke="#000000" points="6.2925,-657.5 144.6626,-657.5 "/>
<text text-anchor="middle" x="75.4775" y="-642.3" font-family="Times,serif" font-size="14.00" fill="#000000">UpdatedAt time.Time</text>
</g>
<!-- node&#45;RoleMenu -->
<g id="node2" class="node">
<title>node&#45;RoleMenu</title>
<polygon fill="none" stroke="#000000" points="175.2925,-345.5 175.2925,-521.5 313.6626,-521.5 313.6626,-345.5 175.2925,-345.5"/>
<text text-anchor="middle" x="244.4775" y="-506.3" font-family="Times,serif" font-size="14.00" fill="#000000">RoleMenu</text>
<polyline fill="none" stroke="#000000" points="175.2925,-499.5 313.6626,-499.5 "/>
<text text-anchor="middle" x="244.4775" y="-484.3" font-family="Times,serif" font-size="14.00" fill="#000000">ID int</text>
<polyline fill="none" stroke="#000000" points="175.2925,-477.5 313.6626,-477.5 "/>
<text text-anchor="middle" x="244.4775" y="-462.3" font-family="Times,serif" font-size="14.00" fill="#000000">CreatedAt time.Time</text>
<polyline fill="none" stroke="#000000" points="175.2925,-455.5 313.6626,-455.5 "/>
<text text-anchor="middle" x="244.4775" y="-440.3" font-family="Times,serif" font-size="14.00" fill="#000000">UpdatedAt time.Time</text>
<polyline fill="none" stroke="#000000" points="175.2925,-433.5 313.6626,-433.5 "/>
<text text-anchor="middle" x="244.4775" y="-418.3" font-family="Times,serif" font-size="14.00" fill="#000000">Role *Role</text>
<polyline fill="none" stroke="#000000" points="175.2925,-411.5 313.6626,-411.5 "/>
<text text-anchor="middle" x="244.4775" y="-396.3" font-family="Times,serif" font-size="14.00" fill="#000000">RoleID int</text>
<polyline fill="none" stroke="#000000" points="175.2925,-389.5 313.6626,-389.5 "/>
<text text-anchor="middle" x="244.4775" y="-374.3" font-family="Times,serif" font-size="14.00" fill="#000000">Menu *Menu</text>
<polyline fill="none" stroke="#000000" points="175.2925,-367.5 313.6626,-367.5 "/>
<text text-anchor="middle" x="244.4775" y="-352.3" font-family="Times,serif" font-size="14.00" fill="#000000">MenuID int</text>
</g>
<!-- node&#45;Role -->
<g id="node5" class="node">
<title>node&#45;Role</title>
<polygon fill="none" stroke="#000000" points="164.7378,-558.5 164.7378,-800.5 324.2173,-800.5 324.2173,-558.5 164.7378,-558.5"/>
<text text-anchor="middle" x="244.4775" y="-785.3" font-family="Times,serif" font-size="14.00" fill="#000000">Role</text>
<polyline fill="none" stroke="#000000" points="164.7378,-778.5 324.2173,-778.5 "/>
<text text-anchor="middle" x="244.4775" y="-763.3" font-family="Times,serif" font-size="14.00" fill="#000000">ID int</text>
<polyline fill="none" stroke="#000000" points="164.7378,-756.5 324.2173,-756.5 "/>
<text text-anchor="middle" x="244.4775" y="-741.3" font-family="Times,serif" font-size="14.00" fill="#000000">CreatedAt time.Time</text>
<polyline fill="none" stroke="#000000" points="164.7378,-734.5 324.2173,-734.5 "/>
<text text-anchor="middle" x="244.4775" y="-719.3" font-family="Times,serif" font-size="14.00" fill="#000000">UpdatedAt time.Time</text>
<polyline fill="none" stroke="#000000" points="164.7378,-712.5 324.2173,-712.5 "/>
<text text-anchor="middle" x="244.4775" y="-697.3" font-family="Times,serif" font-size="14.00" fill="#000000">Name string</text>
<polyline fill="none" stroke="#000000" points="164.7378,-690.5 324.2173,-690.5 "/>
<text text-anchor="middle" x="244.4775" y="-675.3" font-family="Times,serif" font-size="14.00" fill="#000000">Code string</text>
<polyline fill="none" stroke="#000000" points="164.7378,-668.5 324.2173,-668.5 "/>
<text text-anchor="middle" x="244.4775" y="-653.3" font-family="Times,serif" font-size="14.00" fill="#000000">InheritIds []int</text>
<polyline fill="none" stroke="#000000" points="164.7378,-646.5 324.2173,-646.5 "/>
<text text-anchor="middle" x="244.4775" y="-631.3" font-family="Times,serif" font-size="14.00" fill="#000000">InheritStrings string</text>
<polyline fill="none" stroke="#000000" points="164.7378,-624.5 324.2173,-624.5 "/>
<text text-anchor="middle" x="244.4775" y="-609.3" font-family="Times,serif" font-size="14.00" fill="#000000">Inherits []*Role</text>
<polyline fill="none" stroke="#000000" points="164.7378,-602.5 324.2173,-602.5 "/>
<text text-anchor="middle" x="244.4775" y="-587.3" font-family="Times,serif" font-size="14.00" fill="#000000">RoleMenus []*RoleMenu</text>
<polyline fill="none" stroke="#000000" points="164.7378,-580.5 324.2173,-580.5 "/>
<text text-anchor="middle" x="244.4775" y="-565.3" font-family="Times,serif" font-size="14.00" fill="#000000">IsActive bool</text>
</g>
<!-- node&#45;RoleMenu&#45;&gt;node&#45;Role -->
<g id="edge1" class="edge">
<title>node&#45;RoleMenu:f3&#45;&gt;node&#45;Role</title>
<path fill="none" stroke="#000000" d="M313.4775,-422.5C372.0506,-422.5 355.6814,-485.5377 324.2347,-549.1729"/>
<polygon fill="#000000" stroke="#000000" points="321.0853,-547.6452 319.7036,-558.1495 327.3343,-550.7995 321.0853,-547.6452"/>
</g>
<!-- node&#45;Menu -->
<g id="node7" class="node">
<title>node&#45;Menu</title>
<polygon fill="none" stroke="#000000" points="175.2925,-.5 175.2925,-308.5 313.6626,-308.5 313.6626,-.5 175.2925,-.5"/>
<text text-anchor="middle" x="244.4775" y="-293.3" font-family="Times,serif" font-size="14.00" fill="#000000">Menu</text>
<polyline fill="none" stroke="#000000" points="175.2925,-286.5 313.6626,-286.5 "/>
<text text-anchor="middle" x="244.4775" y="-271.3" font-family="Times,serif" font-size="14.00" fill="#000000">ID int</text>
<polyline fill="none" stroke="#000000" points="175.2925,-264.5 313.6626,-264.5 "/>
<text text-anchor="middle" x="244.4775" y="-249.3" font-family="Times,serif" font-size="14.00" fill="#000000">CreatedAt time.Time</text>
<polyline fill="none" stroke="#000000" points="175.2925,-242.5 313.6626,-242.5 "/>
<text text-anchor="middle" x="244.4775" y="-227.3" font-family="Times,serif" font-size="14.00" fill="#000000">UpdatedAt time.Time</text>
<polyline fill="none" stroke="#000000" points="175.2925,-220.5 313.6626,-220.5 "/>
<text text-anchor="middle" x="244.4775" y="-205.3" font-family="Times,serif" font-size="14.00" fill="#000000">Parent *Menu</text>
<polyline fill="none" stroke="#000000" points="175.2925,-198.5 313.6626,-198.5 "/>
<text text-anchor="middle" x="244.4775" y="-183.3" font-family="Times,serif" font-size="14.00" fill="#000000">ParentID int</text>
<polyline fill="none" stroke="#000000" points="175.2925,-176.5 313.6626,-176.5 "/>
<text text-anchor="middle" x="244.4775" y="-161.3" font-family="Times,serif" font-size="14.00" fill="#000000">Name string</text>
<polyline fill="none" stroke="#000000" points="175.2925,-154.5 313.6626,-154.5 "/>
<text text-anchor="middle" x="244.4775" y="-139.3" font-family="Times,serif" font-size="14.00" fill="#000000">Route string</text>
<polyline fill="none" stroke="#000000" points="175.2925,-132.5 313.6626,-132.5 "/>
<text text-anchor="middle" x="244.4775" y="-117.3" font-family="Times,serif" font-size="14.00" fill="#000000">Component string</text>
<polyline fill="none" stroke="#000000" points="175.2925,-110.5 313.6626,-110.5 "/>
<text text-anchor="middle" x="244.4775" y="-95.3" font-family="Times,serif" font-size="14.00" fill="#000000">Icon string</text>
<polyline fill="none" stroke="#000000" points="175.2925,-88.5 313.6626,-88.5 "/>
<text text-anchor="middle" x="244.4775" y="-73.3" font-family="Times,serif" font-size="14.00" fill="#000000">Sequence int</text>
<polyline fill="none" stroke="#000000" points="175.2925,-66.5 313.6626,-66.5 "/>
<text text-anchor="middle" x="244.4775" y="-51.3" font-family="Times,serif" font-size="14.00" fill="#000000">Tree string</text>
<polyline fill="none" stroke="#000000" points="175.2925,-44.5 313.6626,-44.5 "/>
<text text-anchor="middle" x="244.4775" y="-29.3" font-family="Times,serif" font-size="14.00" fill="#000000">Children []*Menu</text>
<polyline fill="none" stroke="#000000" points="175.2925,-22.5 313.6626,-22.5 "/>
<text text-anchor="middle" x="244.4775" y="-7.3" font-family="Times,serif" font-size="14.00" fill="#000000">UniqueTag string</text>
</g>
<!-- node&#45;RoleMenu&#45;&gt;node&#45;Menu -->
<g id="edge2" class="edge">
<title>node&#45;RoleMenu:f5&#45;&gt;node&#45;Menu</title>
<path fill="none" stroke="#000000" d="M313.4775,-378.5C365.236,-378.5 348.5276,-323.2019 318.6113,-267.5561"/>
<polygon fill="#000000" stroke="#000000" points="321.5894,-265.708 313.705,-258.6308 315.4551,-269.0801 321.5894,-265.708"/>
</g>
<!-- node&#45;UserRole -->
<g id="node3" class="node">
<title>node&#45;UserRole</title>
<polygon fill="none" stroke="#000000" points="227.2925,-1226.5 227.2925,-1402.5 365.6626,-1402.5 365.6626,-1226.5 227.2925,-1226.5"/>
<text text-anchor="middle" x="296.4775" y="-1387.3" font-family="Times,serif" font-size="14.00" fill="#000000">UserRole</text>
<polyline fill="none" stroke="#000000" points="227.2925,-1380.5 365.6626,-1380.5 "/>
<text text-anchor="middle" x="296.4775" y="-1365.3" font-family="Times,serif" font-size="14.00" fill="#000000">ID int</text>
<polyline fill="none" stroke="#000000" points="227.2925,-1358.5 365.6626,-1358.5 "/>
<text text-anchor="middle" x="296.4775" y="-1343.3" font-family="Times,serif" font-size="14.00" fill="#000000">CreatedAt time.Time</text>
<polyline fill="none" stroke="#000000" points="227.2925,-1336.5 365.6626,-1336.5 "/>
<text text-anchor="middle" x="296.4775" y="-1321.3" font-family="Times,serif" font-size="14.00" fill="#000000">UpdatedAt time.Time</text>
<polyline fill="none" stroke="#000000" points="227.2925,-1314.5 365.6626,-1314.5 "/>
<text text-anchor="middle" x="296.4775" y="-1299.3" font-family="Times,serif" font-size="14.00" fill="#000000">Role *Role</text>
<polyline fill="none" stroke="#000000" points="227.2925,-1292.5 365.6626,-1292.5 "/>
<text text-anchor="middle" x="296.4775" y="-1277.3" font-family="Times,serif" font-size="14.00" fill="#000000">RoleID int</text>
<polyline fill="none" stroke="#000000" points="227.2925,-1270.5 365.6626,-1270.5 "/>
<text text-anchor="middle" x="296.4775" y="-1255.3" font-family="Times,serif" font-size="14.00" fill="#000000">User *User</text>
<polyline fill="none" stroke="#000000" points="227.2925,-1248.5 365.6626,-1248.5 "/>
<text text-anchor="middle" x="296.4775" y="-1233.3" font-family="Times,serif" font-size="14.00" fill="#000000">UserID int</text>
</g>
<!-- node&#45;User -->
<g id="node4" class="node">
<title>node&#45;User</title>
<polygon fill="none" stroke="#000000" points="168.6104,-837.5 168.6104,-1189.5 320.3447,-1189.5 320.3447,-837.5 168.6104,-837.5"/>
<text text-anchor="middle" x="244.4775" y="-1174.3" font-family="Times,serif" font-size="14.00" fill="#000000">User</text>
<polyline fill="none" stroke="#000000" points="168.6104,-1167.5 320.3447,-1167.5 "/>
<text text-anchor="middle" x="244.4775" y="-1152.3" font-family="Times,serif" font-size="14.00" fill="#000000">ID int</text>
<polyline fill="none" stroke="#000000" points="168.6104,-1145.5 320.3447,-1145.5 "/>
<text text-anchor="middle" x="244.4775" y="-1130.3" font-family="Times,serif" font-size="14.00" fill="#000000">CreatedAt time.Time</text>
<polyline fill="none" stroke="#000000" points="168.6104,-1123.5 320.3447,-1123.5 "/>
<text text-anchor="middle" x="244.4775" y="-1108.3" font-family="Times,serif" font-size="14.00" fill="#000000">UpdatedAt time.Time</text>
<polyline fill="none" stroke="#000000" points="168.6104,-1101.5 320.3447,-1101.5 "/>
<text text-anchor="middle" x="244.4775" y="-1086.3" font-family="Times,serif" font-size="14.00" fill="#000000">Username string</text>
<polyline fill="none" stroke="#000000" points="168.6104,-1079.5 320.3447,-1079.5 "/>
<text text-anchor="middle" x="244.4775" y="-1064.3" font-family="Times,serif" font-size="14.00" fill="#000000">Alias string</text>
<polyline fill="none" stroke="#000000" points="168.6104,-1057.5 320.3447,-1057.5 "/>
<text text-anchor="middle" x="244.4775" y="-1042.3" font-family="Times,serif" font-size="14.00" fill="#000000">Avatar string</text>
<polyline fill="none" stroke="#000000" points="168.6104,-1035.5 320.3447,-1035.5 "/>
<text text-anchor="middle" x="244.4775" y="-1020.3" font-family="Times,serif" font-size="14.00" fill="#000000">Email string</text>
<polyline fill="none" stroke="#000000" points="168.6104,-1013.5 320.3447,-1013.5 "/>
<text text-anchor="middle" x="244.4775" y="-998.3" font-family="Times,serif" font-size="14.00" fill="#000000">Mobile string</text>
<polyline fill="none" stroke="#000000" points="168.6104,-991.5 320.3447,-991.5 "/>
<text text-anchor="middle" x="244.4775" y="-976.3" font-family="Times,serif" font-size="14.00" fill="#000000">Password string</text>
<polyline fill="none" stroke="#000000" points="168.6104,-969.5 320.3447,-969.5 "/>
<text text-anchor="middle" x="244.4775" y="-954.3" font-family="Times,serif" font-size="14.00" fill="#000000">ConfirmPassword string</text>
<polyline fill="none" stroke="#000000" points="168.6104,-947.5 320.3447,-947.5 "/>
<text text-anchor="middle" x="244.4775" y="-932.3" font-family="Times,serif" font-size="14.00" fill="#000000">Pwd string</text>
<polyline fill="none" stroke="#000000" points="168.6104,-925.5 320.3447,-925.5 "/>
<text text-anchor="middle" x="244.4775" y="-910.3" font-family="Times,serif" font-size="14.00" fill="#000000">IsAdmin bool</text>
<polyline fill="none" stroke="#000000" points="168.6104,-903.5 320.3447,-903.5 "/>
<text text-anchor="middle" x="244.4775" y="-888.3" font-family="Times,serif" font-size="14.00" fill="#000000">IsActive bool</text>
<polyline fill="none" stroke="#000000" points="168.6104,-881.5 320.3447,-881.5 "/>
<text text-anchor="middle" x="244.4775" y="-866.3" font-family="Times,serif" font-size="14.00" fill="#000000">Roles []*Role</text>
<polyline fill="none" stroke="#000000" points="168.6104,-859.5 320.3447,-859.5 "/>
<text text-anchor="middle" x="244.4775" y="-844.3" font-family="Times,serif" font-size="14.00" fill="#000000">RoleList []int</text>
</g>
<!-- node&#45;UserRole&#45;&gt;node&#45;User -->
<g id="edge4" class="edge">
<title>node&#45;UserRole:f5&#45;&gt;node&#45;User</title>
<path fill="none" stroke="#000000" d="M227.4775,-1259.5C192.41,-1259.5 181.5246,-1234.3133 182.9363,-1200.0581"/>
<polygon fill="#000000" stroke="#000000" points="186.4577,-1199.8945 183.7024,-1189.6643 179.4767,-1199.3799 186.4577,-1199.8945"/>
</g>
<!-- node&#45;UserRole&#45;&gt;node&#45;Role -->
<g id="edge3" class="edge">
<title>node&#45;UserRole:f3&#45;&gt;node&#45;Role</title>
<path fill="none" stroke="#000000" d="M365.4775,-1303.5C395.8371,-1303.5 456.9272,-1258.5707 329.4775,-837 326.7748,-828.0599 323.5348,-819.0479 319.9211,-810.104"/>
<polygon fill="#000000" stroke="#000000" points="323.1208,-808.6835 316.0268,-800.8141 316.6651,-811.3897 323.1208,-808.6835"/>
</g>
<!-- node&#45;User&#45;&gt;node&#45;Role -->
<g id="edge5" class="edge">
<title>node&#45;User:f13&#45;&gt;node&#45;Role</title>
<path fill="none" stroke="#000000" d="M320.4775,-870.5C337.636,-870.5 331.182,-843.5526 316.4331,-809.9014"/>
<polygon fill="#000000" stroke="#000000" points="319.5982,-808.406 312.2913,-800.7339 313.219,-811.288 319.5982,-808.406"/>
</g>
<!-- node&#45;Role&#45;&gt;node&#45;RoleMenu -->
<g id="edge7" class="edge">
<title>node&#45;Role:f8&#45;&gt;node&#45;RoleMenu</title>
<path fill="none" stroke="#000000" d="M324.4775,-591.5C361.0657,-591.5 346.3519,-557.3594 320.125,-520.8183"/>
<polygon fill="#000000" stroke="#000000" points="322.7445,-518.4732 313.994,-512.5 317.1097,-522.6264 322.7445,-518.4732"/>
</g>
<!-- node&#45;Role&#45;&gt;node&#45;Role -->
<g id="edge6" class="edge">
<title>node&#45;Role:f7&#45;&gt;node&#45;Role</title>
<path fill="none" stroke="#000000" d="M245.5637,-624.5195C253.4617,-713.8286 253.0996,-924 244.4775,-924 239.3573,-924 237.1501,-871.2428 237.8558,-810.75"/>
<polygon fill="#000000" stroke="#000000" points="241.3577,-810.6318 238.0007,-800.5829 234.3584,-810.5319 241.3577,-810.6318"/>
</g>
<!-- node&#45;RoleApi -->
<g id="node6" class="node">
<title>node&#45;RoleApi</title>
<polygon fill="none" stroke="#000000" points="0,-925.5 0,-1101.5 150.9551,-1101.5 150.9551,-925.5 0,-925.5"/>
<text text-anchor="middle" x="75.4775" y="-1086.3" font-family="Times,serif" font-size="14.00" fill="#000000">RoleApi</text>
<polyline fill="none" stroke="#000000" points="0,-1079.5 150.9551,-1079.5 "/>
<text text-anchor="middle" x="75.4775" y="-1064.3" font-family="Times,serif" font-size="14.00" fill="#000000">ID int</text>
<polyline fill="none" stroke="#000000" points="0,-1057.5 150.9551,-1057.5 "/>
<text text-anchor="middle" x="75.4775" y="-1042.3" font-family="Times,serif" font-size="14.00" fill="#000000">CreatedAt time.Time</text>
<polyline fill="none" stroke="#000000" points="0,-1035.5 150.9551,-1035.5 "/>
<text text-anchor="middle" x="75.4775" y="-1020.3" font-family="Times,serif" font-size="14.00" fill="#000000">UpdatedAt time.Time</text>
<polyline fill="none" stroke="#000000" points="0,-1013.5 150.9551,-1013.5 "/>
<text text-anchor="middle" x="75.4775" y="-998.3" font-family="Times,serif" font-size="14.00" fill="#000000">Role *Role</text>
<polyline fill="none" stroke="#000000" points="0,-991.5 150.9551,-991.5 "/>
<text text-anchor="middle" x="75.4775" y="-976.3" font-family="Times,serif" font-size="14.00" fill="#000000">RoleID int</text>
<polyline fill="none" stroke="#000000" points="0,-969.5 150.9551,-969.5 "/>
<text text-anchor="middle" x="75.4775" y="-954.3" font-family="Times,serif" font-size="14.00" fill="#000000">SystemApi *SystemApi</text>
<polyline fill="none" stroke="#000000" points="0,-947.5 150.9551,-947.5 "/>
<text text-anchor="middle" x="75.4775" y="-932.3" font-family="Times,serif" font-size="14.00" fill="#000000">SystemApiID int</text>
</g>
<!-- node&#45;RoleApi&#45;&gt;node&#45;SystemApi -->
<g id="edge9" class="edge">
<title>node&#45;RoleApi:f5&#45;&gt;node&#45;SystemApi</title>
<path fill="none" stroke="#000000" d="M150.4775,-958.5C173.5522,-958.5 124.7002,-814.3376 95.4041,-733.2682"/>
<polygon fill="#000000" stroke="#000000" points="98.6362,-731.9143 91.9345,-723.7084 92.0562,-734.3025 98.6362,-731.9143"/>
</g>
<!-- node&#45;RoleApi&#45;&gt;node&#45;Role -->
<g id="edge8" class="edge">
<title>node&#45;RoleApi:f3&#45;&gt;node&#45;Role</title>
<path fill="none" stroke="#000000" d="M150.4775,-1002.5C159.6856,-1002.5 156.9806,-845.863 159.4775,-837 162.0102,-828.0102 165.1199,-818.9602 168.6364,-809.9879"/>
<polygon fill="#000000" stroke="#000000" points="171.9003,-811.2529 172.4409,-800.6718 165.4199,-808.6063 171.9003,-811.2529"/>
</g>
<!-- node&#45;Menu&#45;&gt;node&#45;Menu -->
<g id="edge10" class="edge">
<title>node&#45;Menu:f3&#45;&gt;node&#45;Menu</title>
<path fill="none" stroke="#000000" d="M245.4423,-220.5592C253.4651,-317.5797 253.1436,-448 244.4775,-448 239.5183,-448 237.2917,-388.5899 237.7978,-318.8745"/>
<polygon fill="#000000" stroke="#000000" points="241.3008,-318.5512 237.8923,-308.5197 234.3011,-318.4873 241.3008,-318.5512"/>
</g>
<!-- node&#45;Menu&#45;&gt;node&#45;Menu -->
<g id="edge11" class="edge">
<title>node&#45;Menu:f11&#45;&gt;node&#45;Menu</title>
<path fill="none" stroke="#000000" d="M245.3934,-44.6065C253.4664,-153.2076 253.1611,-448 244.4775,-448 239.5183,-448 237.2917,-388.5899 237.7978,-318.8745"/>
<polygon fill="#000000" stroke="#000000" points="241.3008,-318.5512 237.8923,-308.5197 234.3011,-318.4873 241.3008,-318.5512"/>
</g>
</g>
</svg>
